<?xml version="1.0" encoding="UTF-8" standalone="no"?>
<svg
   xmlns:dc="http://purl.org/dc/elements/1.1/"
   xmlns:cc="http://creativecommons.org/ns#"
   xmlns:rdf="http://www.w3.org/1999/02/22-rdf-syntax-ns#"
   xmlns:svg="http://www.w3.org/2000/svg"
   xmlns="http://www.w3.org/2000/svg"
   xmlns:sodipodi="http://sodipodi.sourceforge.net/DTD/sodipodi-0.dtd"
   xmlns:inkscape="http://www.inkscape.org/namespaces/inkscape"
   inkscape:version="1.0 (4035a4fb49, 2020-05-01)"
   height="297mm"
   width="210mm"
   sodipodi:docname="ninesquare.svg"
   id="svg4752"
   version="1.1"
   viewBox="0 0 793.70079 1122.5197">
  <metadata
     id="metadata4758">
    <rdf:RDF>
      <cc:Work
         rdf:about="">
        <dc:format>image/svg+xml</dc:format>
        <dc:type
           rdf:resource="http://purl.org/dc/dcmitype/StillImage" />
        <dc:title></dc:title>
      </cc:Work>
    </rdf:RDF>
  </metadata>
  <defs
     id="defs4756" />
  <sodipodi:namedview
     inkscape:current-layer="svg4752"
     inkscape:window-maximized="1"
     inkscape:window-y="-8"
     inkscape:window-x="1912"
     inkscape:cy="453.5588"
     inkscape:cx="-345.75498"
     inkscape:zoom="0.58515118"
     units="mm"
     showgrid="false"
     id="namedview4754"
     inkscape:window-height="1017"
     inkscape:window-width="1920"
     inkscape:pageshadow="2"
     inkscape:pageopacity="0"
     guidetolerance="10"
     gridtolerance="10"
     objecttolerance="10"
     borderopacity="1"
     bordercolor="#666666"
     pagecolor="#ffffff" />
  <g
     transform="matrix(0,1.4514355,-1.4514355,0,656.29291,290.13418)"
     id="g4801">
    <rect
       x="-150"
       y="0"
       width="650"
       height="350"
       rx="20"
       ry="20"
       fill="none"
       stroke="#00ff00"
       id="rect4670" />
    <line
       x1="-112.5"
       y1="100"
       x2="-112.5"
       y2="250"
       stroke="#0000ff"
       id="line4672" />
    <line
       x1="-112.5"
       y1="100"
       x2="-12.5"
       y2="100"
       stroke="#0000ff"
       id="line4674" />
    <line
       x1="-112.5"
       y1="250"
       x2="-12.5"
       y2="250"
       stroke="#0000ff"
       id="line4676" />
    <line
       x1="-12.5"
       y1="250"
       x2="-12.5"
       y2="100"
       stroke="#0000ff"
       id="line4678" />
    <path
       d="m -62.5,100 a 50,50 0 0 1 50,50"
       fill="none"
       stroke="#0000ff"
       id="path4680" />
    <rect
       x="25"
       y="25"
       width="450"
       height="300"
       rx="0"
       ry="0"
       fill="none"
       stroke="#0000ff"
       id="rect4682" />
    <path
       d="m 75,25 a 50,50 0 0 0 50,50"
       fill="none"
       stroke="#0000ff"
       id="path4684" />
    <line
       x1="125"
       y1="75"
       x2="125"
       y2="275"
       stroke="#0000ff"
       id="line4686" />
    <path
       d="m 75,175 a 50,50 0 0 0 50,-50"
       fill="none"
       stroke="#0000ff"
       id="path4688" />
    <path
       d="M 25,225 A 50,50 0 0 0 75,175"
       fill="none"
       stroke="#0000ff"
       id="path4690" />
    <line
       x1="75"
       y1="175"
       x2="125"
       y2="175"
       stroke="#0000ff"
       id="line4692" />
    <path
       d="m 125,275 a 50,50 0 0 1 50,50"
       fill="none"
       stroke="#0000ff"
       id="path4694" />
    <line
       x1="125"
       y1="275"
       x2="225"
       y2="275"
       stroke="#0000ff"
       id="line4696" />
    <line
       x1="175"
       y1="325"
       x2="175"
       y2="275"
       stroke="#0000ff"
       id="line4698" />
    <line
       x1="225"
       y1="275"
       x2="225"
       y2="175"
       stroke="#0000ff"
       id="line4700" />
    <path
       d="m 175,175 a 50,50 0 0 1 50,50"
       fill="none"
       stroke="#0000ff"
       id="path4702" />
    <line
       x1="175"
       y1="175"
       x2="175"
       y2="75"
       stroke="#0000ff"
       id="line4704" />
    <line
       x1="125"
       y1="75"
       x2="175"
       y2="75"
       stroke="#0000ff"
       id="line4706" />
    <line
       x1="175"
       y1="175"
       x2="225"
       y2="175"
       stroke="#0000ff"
       id="line4708" />
    <line
       x1="225"
       y1="175"
       x2="225"
       y2="225"
       stroke="#0000ff"
       id="line4710" />
    <line
       x1="225"
       y1="225"
       x2="275"
       y2="225"
       stroke="#0000ff"
       id="line4712" />
    <line
       x1="275"
       y1="225"
       x2="275"
       y2="175"
       stroke="#0000ff"
       id="line4714" />
    <line
       x1="275"
       y1="175"
       x2="325"
       y2="175"
       stroke="#0000ff"
       id="line4716" />
    <line
       x1="325"
       y1="175"
       x2="325"
       y2="75"
       stroke="#0000ff"
       id="line4718" />
    <line
       x1="325"
       y1="75"
       x2="275"
       y2="75"
       stroke="#0000ff"
       id="line4720" />
    <path
       d="M 225,125 A 50,50 0 0 1 275,75"
       fill="none"
       stroke="#0000ff"
       id="path4722" />
    <path
       d="m 175,175 a 50,50 0 0 1 50,-50"
       fill="none"
       stroke="#0000ff"
       id="path4724" />
    <path
       d="m 225,25 a 50,50 0 0 0 50,50"
       fill="none"
       stroke="#0000ff"
       id="path4726" />
    <line
       x1="325"
       y1="125"
       x2="375"
       y2="125"
       stroke="#0000ff"
       id="line4728" />
    <path
       d="M 375,125 A 50,50 0 0 1 425,75"
       fill="none"
       stroke="#0000ff"
       id="path4730" />
    <line
       x1="425"
       y1="75"
       x2="475"
       y2="75"
       stroke="#0000ff"
       id="line4732" />
    <line
       x1="375"
       y1="125"
       x2="375"
       y2="175"
       stroke="#0000ff"
       id="line4734" />
    <line
       x1="375"
       y1="175"
       x2="325"
       y2="175"
       stroke="#0000ff"
       id="line4736" />
    <path
       d="m 325,175 a 50,50 0 0 0 50,50"
       fill="none"
       stroke="#0000ff"
       id="path4738" />
    <line
       x1="375"
       y1="225"
       x2="425"
       y2="225"
       stroke="#0000ff"
       id="line4740" />
    <path
       d="m 425,225 a 50,50 0 0 1 50,-50"
       fill="none"
       stroke="#0000ff"
       id="path4742" />
    <line
       x1="375"
       y1="225"
       x2="375"
       y2="275"
       stroke="#0000ff"
       id="line4744" />
    <path
       d="m 325,325 a 50,50 0 0 1 50,-50"
       fill="none"
       stroke="#0000ff"
       id="path4746" />
    <line
       x1="275"
       y1="225"
       x2="375"
       y2="225"
       stroke="#0000ff"
       id="line4748" />
    <path
       d="m 225,275 a 50,50 0 0 1 50,-50"
       fill="none"
       stroke="#0000ff"
       id="path4750" />
  </g>
</svg>
