<svg viewBox="0 0 1000 1000" xmlns="http://www.w3.org/2000/svg">
<!-- Les bords intérieurs et exterieurs / -->
<rect x="0" y="0" width="970" height="670" rx ="20" ry="20" fill="none" stroke="lime" transform=""/>
<line x1="35" y1="35" x2="35" y2="635" stroke="lime"   transform="" />
<line x1="935" y1="35" x2="935" y2="635" stroke="lime"   transform="" />
<line x1="35" y1="35" x2="935" y2="35" stroke="lime"   transform="" />
<line x1="35" y1="635" x2="935" y2="635" stroke="lime"   transform="" />
<rect x="35" y="35" width="150" height="100" rx ="10" ry="10" fill="none" stroke="black" transform=""/>
<rect x="185" y="35" width="150" height="100" rx ="10" ry="10" fill="none" stroke="black" transform=""/>
<rect x="35" y="135" width="150" height="100" rx ="10" ry="10" fill="none" stroke="black" transform=""/>
<rect x="185" y="135" width="150" height="100" rx ="10" ry="10" fill="none" stroke="black" transform=""/>
<rect x="35" y="235" width="150" height="100" rx ="10" ry="10" fill="none" stroke="black" transform=""/>
<rect x="185" y="235" width="150" height="100" rx ="10" ry="10" fill="none" stroke="black" transform=""/>
<rect x="35" y="335" width="150" height="100" rx ="10" ry="10" fill="none" stroke="black" transform=""/>
<rect x="185" y="335" width="150" height="100" rx ="10" ry="10" fill="none" stroke="black" transform=""/>
<rect x="35" y="435" width="150" height="100" rx ="10" ry="10" fill="none" stroke="black" transform=""/>
<rect x="185" y="435" width="150" height="100" rx ="10" ry="10" fill="none" stroke="black" transform=""/>
<rect x="35" y="535" width="150" height="100" rx ="10" ry="10" fill="none" stroke="black" transform=""/>
<rect x="185" y="535" width="150" height="100" rx ="10" ry="10" fill="none" stroke="black" transform=""/>
<rect x="335" y="35" width="100" height="150" rx ="10" ry="10" fill="none" stroke="black" transform=""/>
<rect x="335" y="185" width="100" height="150" rx ="10" ry="10" fill="none" stroke="black" transform=""/>
<rect x="435" y="35" width="100" height="150" rx ="10" ry="10" fill="none" stroke="black" transform=""/>
<rect x="435" y="185" width="100" height="150" rx ="10" ry="10" fill="none" stroke="black" transform=""/>
<rect x="535" y="35" width="100" height="150" rx ="10" ry="10" fill="none" stroke="black" transform=""/>
<rect x="535" y="185" width="100" height="150" rx ="10" ry="10" fill="none" stroke="black" transform=""/>
<rect x="635" y="35" width="100" height="150" rx ="10" ry="10" fill="none" stroke="black" transform=""/>
<rect x="635" y="185" width="100" height="150" rx ="10" ry="10" fill="none" stroke="black" transform=""/>
<rect x="735" y="35" width="100" height="150" rx ="10" ry="10" fill="none" stroke="black" transform=""/>
<rect x="735" y="185" width="100" height="150" rx ="10" ry="10" fill="none" stroke="black" transform=""/>
<rect x="835" y="35" width="100" height="150" rx ="10" ry="10" fill="none" stroke="black" transform=""/>
<rect x="835" y="185" width="100" height="150" rx ="10" ry="10" fill="none" stroke="black" transform=""/>
<rect x="335" y="335" width="150" height="100" rx ="10" ry="10" fill="none" stroke="black" transform=""/>
<rect x="485" y="335" width="150" height="100" rx ="10" ry="10" fill="none" stroke="black" transform=""/>
<rect x="335" y="435" width="150" height="100" rx ="10" ry="10" fill="none" stroke="black" transform=""/>
<rect x="485" y="435" width="150" height="100" rx ="10" ry="10" fill="none" stroke="black" transform=""/>
<rect x="335" y="535" width="150" height="100" rx ="10" ry="10" fill="none" stroke="black" transform=""/>
<rect x="485" y="535" width="150" height="100" rx ="10" ry="10" fill="none" stroke="black" transform=""/>
<rect x="635" y="335" width="100" height="150" rx ="10" ry="10" fill="none" stroke="black" transform=""/>
<rect x="635" y="485" width="100" height="150" rx ="10" ry="10" fill="none" stroke="black" transform=""/>
<rect x="735" y="335" width="100" height="150" rx ="10" ry="10" fill="none" stroke="black" transform=""/>
<rect x="735" y="485" width="100" height="150" rx ="10" ry="10" fill="none" stroke="black" transform=""/>
<rect x="835" y="335" width="100" height="150" rx ="10" ry="10" fill="none" stroke="black" transform=""/>
<rect x="835" y="485" width="100" height="150" rx ="10" ry="10" fill="none" stroke="black" transform=""/>
<circle cx="335" cy="335"  r="50"  fill="none" stroke="blue"/>
<circle cx="635" cy="335"  r="50"  fill="none" stroke="blue"/>
<circle cx="185" cy="535"  r="50"  fill="none" stroke="blue"/>
<circle cx="835" cy="185"  r="50"  fill="none" stroke="blue"/>
<!-- Pièce en haut à gauche / -->
<!-- Pièce en haut à gauche ligne du bas/ -->
<!-- Pièce en haut à gauche la hampe de flèche tordue/ -->
<line x1="35.0" y1="35" x2="35.0" y2="35.0" stroke="blue"   transform="" />
<line x1="35.0" y1="35" x2="35.0" y2="35.0" stroke="blue"   transform="" />
<!-- Pièce en haut à gauche la hampe de flèche tordue/ -->
<line x1="35.0" y1="35.0" x2="35" y2="35.0" stroke="blue"   transform="" />
<line x1="35.0" y1="35.0" x2="35" y2="35.0" stroke="blue"   transform="" />
<!-- Pièce en haut à gauche le grand coin arrondi à gauche/ -->
<path d=" M  35 35.0 a 0.0 0.0 0 0 1 0.0 0.0" stroke="blue"  fill="none" />
<!-- Pièce en haut au milieu/ -->
<line x1="35.0" y1="35" x2="35.0" y2="35.0" stroke="blue"   transform="" />
<line x1="35.0" y1="35" x2="35.0" y2="35.0" stroke="blue"   transform="" />
<path d=" M  35 35.0 a 0.0 0.0 0 0 1 0.0 0.0" stroke="blue"  fill="none" />
<line x1="35" y1="35" x2="35" y2="35.0" stroke="blue"   transform="" />
<line x1="35" y1="35.0" x2="35" y2="35.0" stroke="blue"   transform="" />
<line x1="35" y1="35.0" x2="35" y2="35.0" stroke="blue"   transform="" />
<line x1="35" y1="35.0" x2="35" y2="35" stroke="blue"   transform="" />
<line x1="35" y1="35" x2="35" y2="35.0" stroke="blue"   transform="" />
<line x1="35" y1="35" x2="35" y2="35.0" stroke="blue"   transform="" />
<line x1="35" y1="35" x2="35" y2="35" stroke="blue"   transform="" />
<line x1="35" y1="35" x2="35.0" y2="35" stroke="blue"   transform="" />
<line x1="35" y1="35" x2="35.0" y2="35" stroke="blue"   transform="" />
<path d=" M  35 32 a 3 3 0 0 0 3 3" stroke="blue"  fill="none" />
<path d=" M  35 32 a 3 3 0 0 0 3 3" stroke="blue"  fill="none" />
<path d=" M  35 32 a 3 3 0 0 0 3 3" stroke="blue"  fill="none" />
<path d=" M  35 32 a 3 3 0 0 0 3 3" stroke="blue"  fill="none" />
<path d=" M  35 32 a 3 3 0 0 0 3 3" stroke="blue"  fill="none" />
<path d=" M  35 32 a 3 3 0 0 0 3 3" stroke="blue"  fill="none" />
<path d=" M  35 32 a 3 3 0 0 0 3 3" stroke="blue"  fill="none" />
<path d=" M  35 32 a 3 3 0 0 0 3 3" stroke="blue"  fill="none" />
<path d=" M  32 35 a 3 3 0 0 0 3 -3" stroke="blue"  fill="none" />
<path d=" M  32 35 a 3 3 0 0 0 3 -3" stroke="blue"  fill="none" />
<path d=" M  32 35 a 3 3 0 0 0 3 -3" stroke="blue"  fill="none" />
<path d=" M  32 35 a 3 3 0 0 0 3 -3" stroke="blue"  fill="none" />
<path d=" M  32 35 a 3 3 0 0 0 3 -3" stroke="blue"  fill="none" />
<path d=" M  32 35 a 3 3 0 0 0 3 -3" stroke="blue"  fill="none" />
<path d=" M  32 35 a 3 3 0 0 0 3 -3" stroke="blue"  fill="none" />
<path d=" M  32 35 a 3 3 0 0 0 3 -3" stroke="blue"  fill="none" />
<path d=" M  32 35 a 3 3 0 0 0 3 -3" stroke="blue"  fill="none" />
<path d=" M  32 35 a 3 3 0 0 1 3 3" stroke="blue"  fill="none" />
<path d=" M  32 35 a 3 3 0 0 1 3 3" stroke="blue"  fill="none" />
<path d=" M  32 35 a 3 3 0 0 1 3 3" stroke="blue"  fill="none" />
<path d=" M  32 35 a 3 3 0 0 1 3 3" stroke="blue"  fill="none" />
<path d=" M  32 35 a 3 3 0 0 1 3 3" stroke="blue"  fill="none" />
<path d=" M  32 35 a 3 3 0 0 1 3 3" stroke="blue"  fill="none" />
<path d=" M  32 35 a 3 3 0 0 1 3 3" stroke="blue"  fill="none" />
<path d=" M  32 35 a 3 3 0 0 1 3 3" stroke="blue"  fill="none" />
<path d=" M  32 35 a 3 3 0 0 1 3 3" stroke="blue"  fill="none" />
<path d=" M  32 35 a 3 3 0 0 1 3 3" stroke="blue"  fill="none" />
<path d=" M  35 38 a 3 3 0 0 1 3 -3" stroke="blue"  fill="none" />
<path d=" M  35 38 a 3 3 0 0 1 3 -3" stroke="blue"  fill="none" />
<path d=" M  35 38 a 3 3 0 0 1 3 -3" stroke="blue"  fill="none" />
<path d=" M  35 38 a 3 3 0 0 1 3 -3" stroke="blue"  fill="none" />
<path d=" M  35 38 a 3 3 0 0 1 3 -3" stroke="blue"  fill="none" />
<path d=" M  35 38 a 3 3 0 0 1 3 -3" stroke="blue"  fill="none" />
<path d=" M  35 38 a 3 3 0 0 1 3 -3" stroke="blue"  fill="none" />
<path d=" M  35 38 a 3 3 0 0 1 3 -3" stroke="blue"  fill="none" />
<line x1="35.0" y1="35.0" x2="35" y2="35.0" stroke="blue"   transform="" />
<line x1="35.0" y1="35.0" x2="35" y2="35.0" stroke="blue"   transform="" />
<line x1="35.0" y1="35.0" x2="35.0" y2="35.0" stroke="blue"   transform="" />
<line x1="35.0" y1="35.0" x2="35.0" y2="35.0" stroke="blue"   transform="" />
<line x1="35.0" y1="35.0" x2="35.0" y2="35.0" stroke="blue"   transform="" />
<line x1="35.0" y1="35.0" x2="35.0" y2="35.0" stroke="blue"   transform="" />
<line x1="35.0" y1="35.0" x2="35.0" y2="35" stroke="blue"   transform="" />
<line x1="35.0" y1="35.0" x2="35.0" y2="35" stroke="blue"   transform="" />
<line x1="35.0" y1="35.0" x2="35.0" y2="35.0" stroke="blue"   transform="" />
<line x1="35.0" y1="35.0" x2="35.0" y2="35" stroke="blue"   transform="" />
<line x1="35.0" y1="35.0" x2="35.0" y2="35" stroke="blue"   transform="" />
<line x1="35.0" y1="35.0" x2="35.0" y2="35.0" stroke="blue"   transform="" />
<line x1="35.0" y1="35.0" x2="35.0" y2="35.0" stroke="blue"   transform="" />
<line x1="35.0" y1="35.0" x2="35.0" y2="35.0" stroke="blue"   transform="" />
<line x1="35.0" y1="35.0" x2="35.0" y2="35.0" stroke="blue"   transform="" />
<line x1="35" y1="35.0" x2="35.0" y2="35.0" stroke="blue"   transform="" />
<line x1="35" y1="35.0" x2="35.0" y2="35.0" stroke="blue"   transform="" />
<line x1="35" y1="35.0" x2="35.0" y2="35.0" stroke="blue"   transform="" />
<line x1="35" y1="35.0" x2="35.0" y2="35.0" stroke="blue"   transform="" />
<line x1="35" y1="35.0" x2="35.0" y2="35.0" stroke="blue"   transform="" />
<line x1="35" y1="35.0" x2="35.0" y2="35.0" stroke="blue"   transform="" />
<line x1="35.0" y1="35" x2="35.0" y2="35.0" stroke="blue"   transform="" />
<line x1="35.0" y1="35" x2="35.0" y2="35.0" stroke="blue"   transform="" />
<line x1="35.0" y1="35" x2="35.0" y2="35.0" stroke="blue"   transform="" />
<line x1="35.0" y1="35" x2="35.0" y2="35.0" stroke="blue"   transform="" />
<line x1="35.0" y1="35" x2="35.0" y2="35.0" stroke="blue"   transform="" />
<line x1="35.0" y1="35" x2="35.0" y2="35.0" stroke="blue"   transform="" />
<line x1="35" y1="35.0" x2="35.0" y2="35.0" stroke="blue"   transform="" />
<line x1="35.0" y1="35.0" x2="35" y2="35.0" stroke="blue"   transform="" />
<line x1="35.0" y1="35" x2="35.0" y2="35.0" stroke="blue"   transform="" />
<line x1="35.0" y1="35" x2="35.0" y2="35.0" stroke="blue"   transform="" />
<line x1="35.0" y1="35.0" x2="35.0" y2="35.0" stroke="blue"   transform="" />
<line x1="35.0" y1="35.0" x2="35.0" y2="35.0" stroke="blue"   transform="" />
<line x1="35.0" y1="35.0" x2="35.0" y2="35.0" stroke="blue"   transform="" />
<line x1="35.0" y1="35.0" x2="35.0" y2="35.0" stroke="blue"   transform="" />
<line x1="35.0" y1="35.0" x2="35.0" y2="35.0" stroke="blue"   transform="" />
<line x1="35.0" y1="35.0" x2="35.0" y2="35.0" stroke="blue"   transform="" />
<line x1="35.0" y1="35.0" x2="35.0" y2="35.0" stroke="blue"   transform="" />
<line x1="35.0" y1="35.0" x2="35.0" y2="35.0" stroke="blue"   transform="" />
<line x1="35.0" y1="35.0" x2="35" y2="35.0" stroke="blue"   transform="" />
<line x1="35.0" y1="35.0" x2="35" y2="35.0" stroke="blue"   transform="" />
<line x1="35.0" y1="35.0" x2="35.0" y2="35.0" stroke="blue"   transform="" />
<line x1="35.0" y1="35.0" x2="35.0" y2="35.0" stroke="blue"   transform="" />
<line x1="35.0" y1="35.0" x2="35.0" y2="35.0" stroke="blue"   transform="" />
<line x1="35.0" y1="35.0" x2="35.0" y2="35.0" stroke="blue"   transform="" />
<line x1="35.0" y1="35.0" x2="35" y2="35.0" stroke="blue"   transform="" />
<line x1="35.0" y1="35.0" x2="35" y2="35.0" stroke="blue"   transform="" />
</svg>
