<?xml version="1.0" encoding="UTF-8" standalone="no"?>
<svg
   xmlns:dc="http://purl.org/dc/elements/1.1/"
   xmlns:cc="http://creativecommons.org/ns#"
   xmlns:rdf="http://www.w3.org/1999/02/22-rdf-syntax-ns#"
   xmlns:svg="http://www.w3.org/2000/svg"
   xmlns="http://www.w3.org/2000/svg"
   xmlns:sodipodi="http://sodipodi.sourceforge.net/DTD/sodipodi-0.dtd"
   xmlns:inkscape="http://www.inkscape.org/namespaces/inkscape"
   viewBox="0 0 1000 1000"
   version="1.1"
   id="svg3203"
   sodipodi:docname="verso.svg"
   inkscape:version="1.0 (4035a4fb49, 2020-05-01)">
  <metadata
     id="metadata3209">
    <rdf:RDF>
      <cc:Work
         rdf:about="">
        <dc:format>image/svg+xml</dc:format>
        <dc:type
           rdf:resource="http://purl.org/dc/dcmitype/StillImage" />
        <dc:title></dc:title>
      </cc:Work>
    </rdf:RDF>
  </metadata>
  <defs
     id="defs3207" />
  <sodipodi:namedview
     inkscape:document-rotation="0"
     pagecolor="#ffffff"
     bordercolor="#666666"
     borderopacity="1"
     objecttolerance="10"
     gridtolerance="10"
     guidetolerance="10"
     inkscape:pageopacity="0"
     inkscape:pageshadow="2"
     inkscape:window-width="1920"
     inkscape:window-height="1017"
     id="namedview3205"
     showgrid="false"
     inkscape:zoom="0.58515119"
     inkscape:cx="32.03947"
     inkscape:cy="436.0973"
     inkscape:window-x="1912"
     inkscape:window-y="-8"
     inkscape:window-maximized="1"
     inkscape:current-layer="svg3203" />
  <!-- Les bords intérieurs et exterieurs / -->
  <line
     x1="940.81622"
     y1="35"
     x2="940.81622"
     y2="635"
     stroke="#00ff00"
     id="line2871" />
  <line
     x1="40.816223"
     y1="35"
     x2="40.816223"
     y2="635"
     stroke="#00ff00"
     id="line2873" />
  <line
     x1="940.81622"
     y1="35"
     x2="40.816223"
     y2="35"
     stroke="#00ff00"
     id="line2875" />
  <line
     x1="940.81622"
     y1="635"
     x2="40.816223"
     y2="635"
     stroke="#00ff00"
     id="line2877" />
  <rect
     x="-940.81622"
     y="35"
     width="150"
     height="100"
     rx="10"
     ry="10"
     fill="none"
     stroke="black"
     transform="scale(-1,1)"
     id="rect2879"
     style="stroke:#ff0000;stroke-opacity:1" />
  <rect
     x="-790.81622"
     y="35"
     width="150"
     height="100"
     rx="10"
     ry="10"
     fill="none"
     stroke="black"
     transform="scale(-1,1)"
     id="rect2881"
     style="stroke:#ff0000;stroke-opacity:1" />
  <rect
     x="-940.81622"
     y="135"
     width="150"
     height="100"
     rx="10"
     ry="10"
     fill="none"
     stroke="black"
     transform="scale(-1,1)"
     id="rect2883"
     style="stroke:#ff0000;stroke-opacity:1" />
  <rect
     x="-790.81622"
     y="135"
     width="150"
     height="100"
     rx="10"
     ry="10"
     fill="none"
     stroke="black"
     transform="scale(-1,1)"
     id="rect2885"
     style="stroke:#ff0000;stroke-opacity:1" />
  <rect
     x="-940.81622"
     y="235"
     width="150"
     height="100"
     rx="10"
     ry="10"
     fill="none"
     stroke="black"
     transform="scale(-1,1)"
     id="rect2887"
     style="stroke:#ff0000;stroke-opacity:1" />
  <rect
     x="-790.81622"
     y="235"
     width="150"
     height="100"
     rx="10"
     ry="10"
     fill="none"
     stroke="black"
     transform="scale(-1,1)"
     id="rect2889"
     style="stroke:#ff0000;stroke-opacity:1" />
  <rect
     x="-940.81622"
     y="335"
     width="150"
     height="100"
     rx="10"
     ry="10"
     fill="none"
     stroke="black"
     transform="scale(-1,1)"
     id="rect2891"
     style="stroke:#ff0000;stroke-opacity:1" />
  <rect
     x="-790.81622"
     y="335"
     width="150"
     height="100"
     rx="10"
     ry="10"
     fill="none"
     stroke="black"
     transform="scale(-1,1)"
     id="rect2893"
     style="stroke:#ff0000;stroke-opacity:1" />
  <rect
     x="-940.81622"
     y="435"
     width="150"
     height="100"
     rx="10"
     ry="10"
     fill="none"
     stroke="black"
     transform="scale(-1,1)"
     id="rect2895"
     style="stroke:#ff0000;stroke-opacity:1" />
  <rect
     x="-790.81622"
     y="435"
     width="150"
     height="100"
     rx="10"
     ry="10"
     fill="none"
     stroke="black"
     transform="scale(-1,1)"
     id="rect2897"
     style="stroke:#ff0000;stroke-opacity:1" />
  <rect
     x="-940.81622"
     y="535"
     width="150"
     height="100"
     rx="10"
     ry="10"
     fill="none"
     stroke="black"
     transform="scale(-1,1)"
     id="rect2899"
     style="stroke:#ff0000;stroke-opacity:1" />
  <rect
     x="-790.81622"
     y="535"
     width="150"
     height="100"
     rx="10"
     ry="10"
     fill="none"
     stroke="black"
     transform="scale(-1,1)"
     id="rect2901"
     style="stroke:#ff0000;stroke-opacity:1" />
  <rect
     x="-640.81622"
     y="35"
     width="100"
     height="150"
     rx="10"
     ry="10"
     fill="none"
     stroke="black"
     transform="scale(-1,1)"
     id="rect2903"
     style="stroke:#ff0000;stroke-opacity:1" />
  <rect
     x="-640.81622"
     y="185"
     width="100"
     height="150"
     rx="10"
     ry="10"
     fill="none"
     stroke="black"
     transform="scale(-1,1)"
     id="rect2905"
     style="stroke:#ff0000;stroke-opacity:1" />
  <rect
     x="-540.81622"
     y="35"
     width="100"
     height="150"
     rx="10"
     ry="10"
     fill="none"
     stroke="black"
     transform="scale(-1,1)"
     id="rect2907"
     style="stroke:#ff0000;stroke-opacity:1" />
  <rect
     x="-540.81622"
     y="185"
     width="100"
     height="150"
     rx="10"
     ry="10"
     fill="none"
     stroke="black"
     transform="scale(-1,1)"
     id="rect2909"
     style="stroke:#ff0000;stroke-opacity:1" />
  <rect
     x="-440.81622"
     y="35"
     width="100"
     height="150"
     rx="10"
     ry="10"
     fill="none"
     stroke="black"
     transform="scale(-1,1)"
     id="rect2911"
     style="stroke:#ff0000;stroke-opacity:1" />
  <rect
     x="-440.81622"
     y="185"
     width="100"
     height="150"
     rx="10"
     ry="10"
     fill="none"
     stroke="black"
     transform="scale(-1,1)"
     id="rect2913"
     style="stroke:#ff0000;stroke-opacity:1" />
  <rect
     x="-340.81622"
     y="35"
     width="100"
     height="150"
     rx="10"
     ry="10"
     fill="none"
     stroke="black"
     transform="scale(-1,1)"
     id="rect2915"
     style="stroke:#ff0000;stroke-opacity:1" />
  <rect
     x="-340.81622"
     y="185"
     width="100"
     height="150"
     rx="10"
     ry="10"
     fill="none"
     stroke="black"
     transform="scale(-1,1)"
     id="rect2917"
     style="stroke:#ff0000;stroke-opacity:1" />
  <rect
     x="-240.81622"
     y="35"
     width="100"
     height="150"
     rx="10"
     ry="10"
     fill="none"
     stroke="black"
     transform="scale(-1,1)"
     id="rect2919"
     style="stroke:#ff0000;stroke-opacity:1" />
  <rect
     x="-240.81622"
     y="185"
     width="100"
     height="150"
     rx="10"
     ry="10"
     fill="none"
     stroke="black"
     transform="scale(-1,1)"
     id="rect2921"
     style="stroke:#ff0000;stroke-opacity:1" />
  <rect
     x="-140.81622"
     y="35"
     width="100"
     height="150"
     rx="10"
     ry="10"
     fill="none"
     stroke="black"
     transform="scale(-1,1)"
     id="rect2923"
     style="stroke:#ff0000;stroke-opacity:1" />
  <rect
     x="-140.81622"
     y="185"
     width="100"
     height="150"
     rx="10"
     ry="10"
     fill="none"
     stroke="black"
     transform="scale(-1,1)"
     id="rect2925"
     style="stroke:#ff0000;stroke-opacity:1" />
  <rect
     x="-640.81622"
     y="335"
     width="150"
     height="100"
     rx="10"
     ry="10"
     fill="none"
     stroke="black"
     transform="scale(-1,1)"
     id="rect2927"
     style="stroke:#ff0000;stroke-opacity:1" />
  <rect
     x="-490.81622"
     y="335"
     width="150"
     height="100"
     rx="10"
     ry="10"
     fill="none"
     stroke="black"
     transform="scale(-1,1)"
     id="rect2929"
     style="stroke:#ff0000;stroke-opacity:1" />
  <rect
     x="-640.81622"
     y="435"
     width="150"
     height="100"
     rx="10"
     ry="10"
     fill="none"
     stroke="black"
     transform="scale(-1,1)"
     id="rect2931"
     style="stroke:#ff0000;stroke-opacity:1" />
  <rect
     x="-490.81622"
     y="435"
     width="150"
     height="100"
     rx="10"
     ry="10"
     fill="none"
     stroke="black"
     transform="scale(-1,1)"
     id="rect2933"
     style="stroke:#ff0000;stroke-opacity:1" />
  <rect
     x="-640.81622"
     y="535"
     width="150"
     height="100"
     rx="10"
     ry="10"
     fill="none"
     stroke="black"
     transform="scale(-1,1)"
     id="rect2935"
     style="stroke:#ff0000;stroke-opacity:1" />
  <rect
     x="-490.81622"
     y="535"
     width="150"
     height="100"
     rx="10"
     ry="10"
     fill="none"
     stroke="black"
     transform="scale(-1,1)"
     id="rect2937"
     style="stroke:#ff0000;stroke-opacity:1" />
  <rect
     x="-340.81622"
     y="335"
     width="100"
     height="150"
     rx="10"
     ry="10"
     fill="none"
     stroke="black"
     transform="scale(-1,1)"
     id="rect2939"
     style="stroke:#ff0000;stroke-opacity:1" />
  <rect
     x="-340.81622"
     y="485"
     width="100"
     height="150"
     rx="10"
     ry="10"
     fill="none"
     stroke="black"
     transform="scale(-1,1)"
     id="rect2941"
     style="stroke:#ff0000;stroke-opacity:1" />
  <rect
     x="-240.81622"
     y="335"
     width="100"
     height="150"
     rx="10"
     ry="10"
     fill="none"
     stroke="black"
     transform="scale(-1,1)"
     id="rect2943"
     style="stroke:#ff0000;stroke-opacity:1" />
  <rect
     x="-240.81622"
     y="485"
     width="100"
     height="150"
     rx="10"
     ry="10"
     fill="none"
     stroke="black"
     transform="scale(-1,1)"
     id="rect2945"
     style="stroke:#ff0000;stroke-opacity:1" />
  <rect
     x="-140.81622"
     y="335"
     width="100"
     height="150"
     rx="10"
     ry="10"
     fill="none"
     stroke="black"
     transform="scale(-1,1)"
     id="rect2947"
     style="stroke:#ff0000;stroke-opacity:1" />
  <rect
     x="-140.81622"
     y="485"
     width="100"
     height="150"
     rx="10"
     ry="10"
     fill="none"
     stroke="black"
     transform="scale(-1,1)"
     id="rect2949"
     style="stroke:#ff0000;stroke-opacity:1" />
  <!-- Pièce en haut à gauche / -->
  <!-- Pièce en haut à gauche ligne du bas/ -->
  <!-- Pièce en haut à gauche la hampe de flèche tordue/ -->
  <!-- Pièce en haut à gauche la hampe de flèche tordue/ -->
  <!-- Pièce en haut à gauche le grand coin arrondi à gauche/ -->
  <!-- Pièce en haut au milieu/ -->
  <rect
     transform="scale(-1,1)"
     y="-17.0896"
     x="-992.90582"
     height="722.89008"
     width="1009.9954"
     id="rect209"
     style="fill:none;fill-rule:evenodd;stroke:#00ff00;stroke-opacity:1;paint-order:fill markers stroke" />
</svg>
