<svg viewBox="0 0 1000 1000" xmlns="http://www.w3.org/2000/svg">
<rect x="0" y="0" width="500" height="600" rx ="20" ry="20" fill="none" stroke="lime" transform=""/>
<line x1="25" y1="25" x2="25" y2="575" stroke="blue"   transform="" />
<line x1="475" y1="25" x2="475" y2="575" stroke="blue"   transform="" />
<line x1="25" y1="25" x2="75" y2="25" stroke="blue"   transform="" />
<line x1="125" y1="25" x2="175" y2="25" stroke="blue"   transform="" />
<line x1="75" y1="75" x2="125" y2="75" stroke="blue"   transform="" />
<line x1="75" y1="25" x2="75" y2="75" stroke="blue"   transform="" />
<line x1="125" y1="25" x2="125" y2="75" stroke="blue"   transform="" />
<line x1="325" y1="25" x2="375" y2="25" stroke="blue"   transform="" />
<line x1="425" y1="25" x2="475" y2="25" stroke="blue"   transform="" />
<line x1="375" y1="75" x2="425" y2="75" stroke="blue"   transform="" />
<line x1="375" y1="25" x2="375" y2="75" stroke="blue"   transform="" />
<line x1="425" y1="25" x2="425" y2="75" stroke="blue"   transform="" />
<line x1="25" y1="225" x2="75" y2="225" stroke="blue"   transform="" />
<line x1="125" y1="225" x2="175" y2="225" stroke="blue"   transform="" />
<line x1="75" y1="275" x2="125" y2="275" stroke="blue"   transform="" />
<line x1="75" y1="225" x2="75" y2="275" stroke="blue"   transform="" />
<line x1="125" y1="225" x2="125" y2="275" stroke="blue"   transform="" />
<line x1="175" y1="175" x2="325" y2="175" stroke="blue"   transform="" />
<line x1="100.0" y1="475" x2="100.0" y2="575" stroke="red"   transform="" />
<line x1="25" y1="575" x2="175" y2="575" stroke="blue"   transform="" />
<line x1="325" y1="575" x2="475" y2="575" stroke="blue"   transform="" />
<line x1="175" y1="25" x2="175" y2="575" stroke="blue"   transform="" />
<line x1="325" y1="25" x2="325" y2="575" stroke="blue"   transform="" />
<line x1="25" y1="225" x2="175" y2="225" stroke="blue"   transform="" />
<line x1="325" y1="225" x2="475" y2="225" stroke="blue"   transform="" />
<line x1="25" y1="375" x2="175" y2="375" stroke="blue"   transform="" />
<line x1="325" y1="375" x2="475" y2="375" stroke="blue"   transform="" />
<line x1="175" y1="75" x2="325" y2="75" stroke="blue"   transform="" />
<line x1="175" y1="525" x2="325" y2="525" stroke="blue"   transform="" />
</svg>
