<svg viewBox="0 0 1000 1000" xmlns="http://www.w3.org/2000/svg">
<!-- Les bords intérieurs et exterieurs / -->
<rect x="0" y="0" width="200" height="200" rx ="20" ry="20" fill="none" stroke="lime" transform=""/>
<line x1="25" y1="25" x2="150.0" y2="25" stroke="lime"   transform="" />
<path d=" M 150.0 25 
 a 25.0 25.0 0 0 1 25.0 25.0" fill="none" stroke="lime"/>
<line x1="175" y1="50.0" x2="175" y2="175" stroke="lime"   transform="" />
<line x1="175" y1="175" x2="50.0" y2="175" stroke="lime"   transform="" />
<path d=" M 25 150.0 
 a 25.0 25.0 0 0 0 25.0 25.0" fill="none" stroke="lime"/>
<line x1="25" y1="150.0" x2="25" y2="25" stroke="lime"   transform="" />
<!-- Pièce en haut à gauche / -->
<!-- Pièce en haut à gauche ligne du bas/ -->
<!-- Pièce en haut à gauche la hampe de flèche tordue/ -->
<line x1="42.85714285714286" y1="75" x2="42.85714285714286" y2="59.5" stroke="blue"   transform="" />
<line x1="57.142857142857146" y1="75" x2="57.142857142857146" y2="51.25213901157677" stroke="blue"   transform="" />
<path d=" M  42.85714285714286 59.5 a 3 3 1 0 0 -3 -3" stroke="blue"  fill="none" />
<path d=" M  57.142857142857146 51.25213901157677 a 3 3 1 0 0 -3 -3" stroke="blue"  fill="none" />
<!-- Pièce en haut à gauche le grand coin arrondi à gauche/ -->
<path d=" M  25 50.0 a 25.0 25.0 0 0 1 25.0 -25.0" stroke="blue"  fill="none" />
<!-- Pièce en haut au milieu/ -->
<line x1="92.85714285714286" y1="25" x2="92.85714285714286" y2="45.74786098842323" stroke="blue"   transform="" />
<line x1="107.14285714285714" y1="25" x2="107.14285714285714" y2="37.5" stroke="blue"   transform="" />
<path d=" M  25 100.0 a 25.0 25.0 0 0 1 25.0 -25.0" stroke="blue"  fill="none" />
<line x1="75" y1="25" x2="75" y2="175" stroke="blue"   transform="" />
<line x1="25" y1="75" x2="175" y2="75" stroke="blue"   transform="" />
<line x1="125" y1="25" x2="125" y2="175" stroke="blue"   transform="" />
<line x1="25" y1="125" x2="175" y2="125" stroke="blue"   transform="" />
<path d=" M  25 122 a 3 3 0 0 0 3 3" stroke="yellow"  fill="none" />
<path d=" M  75 122 a 3 3 0 0 0 3 3" stroke="yellow"  fill="none" />
<path d=" M  125 122 a 3 3 0 0 0 3 3" stroke="yellow"  fill="none" />
<path d=" M  25 72 a 3 3 0 0 0 3 3" stroke="yellow"  fill="none" />
<path d=" M  75 72 a 3 3 0 0 0 3 3" stroke="yellow"  fill="none" />
<path d=" M  125 72 a 3 3 0 0 0 3 3" stroke="yellow"  fill="none" />
<path d=" M  75 172 a 3 3 0 0 0 3 3" stroke="yellow"  fill="none" />
<path d=" M  125 172 a 3 3 0 0 0 3 3" stroke="yellow"  fill="none" />
<path d=" M  72 75 a 3 3 0 0 0 3 -3" stroke="yellow"  fill="none" />
<path d=" M  72 125 a 3 3 0 0 0 3 -3" stroke="yellow"  fill="none" />
<path d=" M  72 175 a 3 3 0 0 0 3 -3" stroke="yellow"  fill="none" />
<path d=" M  122 75 a 3 3 0 0 0 3 -3" stroke="yellow"  fill="none" />
<path d=" M  122 125 a 3 3 0 0 0 3 -3" stroke="yellow"  fill="none" />
<path d=" M  122 175 a 3 3 0 0 0 3 -3" stroke="yellow"  fill="none" />
<path d=" M  172 75 a 3 3 0 0 0 3 -3" stroke="yellow"  fill="none" />
<path d=" M  172 125 a 3 3 0 0 0 3 -3" stroke="yellow"  fill="none" />
<path d=" M  172 175 a 3 3 0 0 0 3 -3" stroke="yellow"  fill="none" />
<path d=" M  72 25 a 3 3 0 0 1 3 3" stroke="yellow"  fill="none" />
<path d=" M  72 75 a 3 3 0 0 1 3 3" stroke="yellow"  fill="none" />
<path d=" M  72 125 a 3 3 0 0 1 3 3" stroke="yellow"  fill="none" />
<path d=" M  122 25 a 3 3 0 0 1 3 3" stroke="yellow"  fill="none" />
<path d=" M  122 75 a 3 3 0 0 1 3 3" stroke="yellow"  fill="none" />
<path d=" M  122 125 a 3 3 0 0 1 3 3" stroke="yellow"  fill="none" />
<path d=" M  172 25 a 3 3 0 0 1 3 3" stroke="yellow"  fill="none" />
<path d=" M  172 75 a 3 3 0 0 1 3 3" stroke="yellow"  fill="none" />
<path d=" M  172 125 a 3 3 0 0 1 3 3" stroke="yellow"  fill="none" />
<path d=" M  122 75 a 3 3 0 0 1 3 3" stroke="yellox"  fill="none" />
<path d=" M  122 125 a 3 3 0 0 1 3 3" stroke="yellow"  fill="none" />
<path d=" M  25 72 a 3 3 0 0 0 3 3" stroke="red"  fill="none" />
</svg>
