<svg viewBox="0 0 1000 1000" xmlns="http://www.w3.org/2000/svg">
<!-- Les bords intérieurs et exterieurs / -->
<rect x="0" y="0" width="200" height="200" rx ="20" ry="20" fill="none" stroke="lime" transform=""/>
<line x1="25" y1="25" x2="150.0" y2="25" stroke="lime"   transform="" />
<path d=" M 150.0 25 
 a 25.0 25.0 0 0 1 25.0 25.0" fill="none" stroke="lime"/>
<line x1="175" y1="50.0" x2="175" y2="175" stroke="lime"   transform="" />
<line x1="175" y1="175" x2="50.0" y2="175" stroke="lime"   transform="" />
<path d=" M 25 150.0 
 a 25.0 25.0 0 0 0 25.0 25.0" fill="none" stroke="lime"/>
<line x1="25" y1="150.0" x2="25" y2="25" stroke="lime"   transform="" />
<!-- Pièce en haut à gauche / -->
<!-- Pièce en haut à gauche ligne du bas/ -->
<!-- Pièce en haut à gauche la hampe de flèche tordue/ -->
<line x1="44.82233047033631" y1="75" x2="44.82233047033631" y2="59.5" stroke="blue"   transform="" />
<line x1="55.17766952966369" y1="75" x2="55.17766952966369" y2="53.52134220654749" stroke="blue"   transform="" />
<path d=" M  44.82233047033631 59.5 a 3 3 1 0 0 -3 -3" stroke="blue"  fill="none" />
<path d=" M  55.17766952966369 53.52134220654749 a 3 3 1 0 0 -3 -3" stroke="blue"  fill="none" />
<!-- Pièce en haut à gauche le grand coin arrondi à gauche/ -->
<path d=" M  25 50.0 a 25.0 25.0 0 0 1 25.0 -25.0" stroke="blue"  fill="none" />
<!-- Pièce en haut au milieu/ -->
<line x1="94.82233047033631" y1="25" x2="94.82233047033631" y2="43.47865779345251" stroke="blue"   transform="" />
<line x1="105.17766952966369" y1="25" x2="105.17766952966369" y2="37.5" stroke="blue"   transform="" />
<path d=" M  25 100.0 a 25.0 25.0 0 0 1 25.0 -25.0" stroke="blue"  fill="none" />
<line x1="75" y1="25" x2="75" y2="35.35533905932738" stroke="blue"   transform="" />
<line x1="75" y1="45.710678118654755" x2="75" y2="85.35533905932738" stroke="blue"   transform="" />
<line x1="75" y1="95.71067811865476" x2="75" y2="154.28932188134524" stroke="blue"   transform="" />
<line x1="75" y1="164.64466094067262" x2="75" y2="175" stroke="blue"   transform="" />
<line x1="125" y1="25" x2="125" y2="144.8223304703363" stroke="blue"   transform="" />
<line x1="125" y1="175" x2="125" y2="155.1776695296637" stroke="blue"   transform="" />
<line x1="25" y1="75" x2="175" y2="75" stroke="blue"   transform="" />
<line x1="25" y1="125" x2="144.8223304703363" y2="125" stroke="blue"   transform="" />
<line x1="175" y1="125" x2="155.1776695296637" y2="125" stroke="blue"   transform="" />
<path d=" M  25 122 a 3 3 0 0 0 3 3" stroke="blue"  fill="none" />
<path d=" M  75 122 a 3 3 0 0 0 3 3" stroke="blue"  fill="none" />
<path d=" M  125 122 a 3 3 0 0 0 3 3" stroke="blue"  fill="none" />
<path d=" M  25 72 a 3 3 0 0 0 3 3" stroke="blue"  fill="none" />
<path d=" M  75 72 a 3 3 0 0 0 3 3" stroke="blue"  fill="none" />
<path d=" M  125 72 a 3 3 0 0 0 3 3" stroke="blue"  fill="none" />
<path d=" M  75 172 a 3 3 0 0 0 3 3" stroke="blue"  fill="none" />
<path d=" M  125 172 a 3 3 0 0 0 3 3" stroke="blue"  fill="none" />
<path d=" M  72 75 a 3 3 0 0 0 3 -3" stroke="blue"  fill="none" />
<path d=" M  72 125 a 3 3 0 0 0 3 -3" stroke="blue"  fill="none" />
<path d=" M  72 175 a 3 3 0 0 0 3 -3" stroke="blue"  fill="none" />
<path d=" M  122 75 a 3 3 0 0 0 3 -3" stroke="blue"  fill="none" />
<path d=" M  122 125 a 3 3 0 0 0 3 -3" stroke="blue"  fill="none" />
<path d=" M  122 175 a 3 3 0 0 0 3 -3" stroke="blue"  fill="none" />
<path d=" M  172 75 a 3 3 0 0 0 3 -3" stroke="blue"  fill="none" />
<path d=" M  172 125 a 3 3 0 0 0 3 -3" stroke="blue"  fill="none" />
<path d=" M  172 175 a 3 3 0 0 0 3 -3" stroke="blue"  fill="none" />
<path d=" M  72 25 a 3 3 0 0 1 3 3" stroke="blue"  fill="none" />
<path d=" M  72 75 a 3 3 0 0 1 3 3" stroke="blue"  fill="none" />
<path d=" M  72 125 a 3 3 0 0 1 3 3" stroke="blue"  fill="none" />
<path d=" M  122 25 a 3 3 0 0 1 3 3" stroke="blue"  fill="none" />
<path d=" M  122 75 a 3 3 0 0 1 3 3" stroke="blue"  fill="none" />
<path d=" M  122 125 a 3 3 0 0 1 3 3" stroke="blue"  fill="none" />
<path d=" M  172 75 a 3 3 0 0 1 3 3" stroke="blue"  fill="none" />
<path d=" M  172 125 a 3 3 0 0 1 3 3" stroke="blue"  fill="none" />
<path d=" M  122 75 a 3 3 0 0 1 3 3" stroke="blue"  fill="none" />
<path d=" M  122 125 a 3 3 0 0 1 3 3" stroke="blue"  fill="none" />
<path d=" M  125 128 a 3 3 0 0 1 3 -3" stroke="blue"  fill="none" />
<path d=" M  125 78 a 3 3 0 0 1 3 -3" stroke="blue"  fill="none" />
<path d=" M  125 28 a 3 3 0 0 1 3 -3" stroke="blue"  fill="none" />
<path d=" M  75 128 a 3 3 0 0 1 3 -3" stroke="blue"  fill="none" />
<path d=" M  75 78 a 3 3 0 0 1 3 -3" stroke="blue"  fill="none" />
<path d=" M  75 28 a 3 3 0 0 1 3 -3" stroke="blue"  fill="none" />
<path d=" M  25 128 a 3 3 0 0 1 3 -3" stroke="blue"  fill="none" />
<path d=" M  25 78 a 3 3 0 0 1 3 -3" stroke="blue"  fill="none" />
<line x1="53.033008588991066" y1="35.35533905932738" x2="75" y2="35.35533905932738" stroke="blue"   transform="" />
<line x1="53.033008588991066" y1="45.710678118654755" x2="75" y2="45.710678118654755" stroke="blue"   transform="" />
<line x1="53.033008588991066" y1="35.35533905932738" x2="53.033008588991066" y2="45.710678118654755" stroke="blue"   transform="" />
<line x1="125.0" y1="35.35533905932738" x2="146.96699141100893" y2="35.35533905932738" stroke="blue"   transform="" />
<line x1="125.0" y1="45.710678118654755" x2="146.96699141100893" y2="45.710678118654755" stroke="blue"   transform="" />
<line x1="146.96699141100893" y1="35.35533905932738" x2="146.96699141100893" y2="45.710678118654755" stroke="blue"   transform="" />
<line x1="154.28932188134524" y1="53.033008588991066" x2="154.28932188134524" y2="75" stroke="blue"   transform="" />
<line x1="164.64466094067262" y1="53.033008588991066" x2="164.64466094067262" y2="75" stroke="blue"   transform="" />
<line x1="164.64466094067262" y1="53.033008588991066" x2="154.28932188134524" y2="53.033008588991066" stroke="blue"   transform="" />
<line x1="154.28932188134524" y1="153.03300858899107" x2="154.28932188134524" y2="175" stroke="blue"   transform="" />
<line x1="164.64466094067262" y1="153.03300858899107" x2="164.64466094067262" y2="175" stroke="blue"   transform="" />
<line x1="164.64466094067262" y1="153.03300858899107" x2="154.28932188134524" y2="153.03300858899107" stroke="blue"   transform="" />
<line x1="75.0" y1="154.28932188134524" x2="96.96699141100893" y2="154.28932188134524" stroke="blue"   transform="" />
<line x1="75.0" y1="164.64466094067262" x2="96.96699141100893" y2="164.64466094067262" stroke="blue"   transform="" />
<line x1="96.96699141100893" y1="154.28932188134524" x2="96.96699141100893" y2="164.64466094067262" stroke="blue"   transform="" />
<line x1="75" y1="31.066017177982133" x2="84.46699141100893" y2="40.533008588991066" stroke="blue"   transform="" />
<line x1="75" y1="50.0" x2="84.46699141100893" y2="40.533008588991066" stroke="blue"   transform="" />
<line x1="75" y1="81.06601717798213" x2="84.46699141100893" y2="90.53300858899107" stroke="blue"   transform="" />
<line x1="75" y1="100.0" x2="84.46699141100893" y2="90.53300858899107" stroke="blue"   transform="" />
<line x1="75" y1="150.0" x2="65.53300858899107" y2="159.46699141100893" stroke="blue"   transform="" />
<line x1="75" y1="168.93398282201787" x2="65.53300858899107" y2="159.46699141100893" stroke="blue"   transform="" />
<line x1="140.53300858899107" y1="125" x2="150.0" y2="134.46699141100893" stroke="blue"   transform="" />
<line x1="159.46699141100893" y1="125" x2="150.0" y2="134.46699141100893" stroke="blue"   transform="" />
<line x1="50.0" y1="125" x2="59.466991411008934" y2="134.46699141100893" stroke="blue"   transform="" />
<line x1="68.93398282201787" y1="125" x2="59.466991411008934" y2="134.46699141100893" stroke="blue"   transform="" />
<line x1="50.0" y1="125" x2="59.466991411008934" y2="115.53300858899107" stroke="blue"   transform="" />
<line x1="68.93398282201787" y1="125" x2="59.466991411008934" y2="115.53300858899107" stroke="blue"   transform="" />
<line x1="125" y1="140.53300858899107" x2="134.46699141100893" y2="150.0" stroke="blue"   transform="" />
<line x1="134.46699141100893" y1="150.0" x2="125" y2="159.46699141100893" stroke="blue"   transform="" />
<line x1="144.8223304703363" y1="125" x2="144.8223304703363" y2="112.5" stroke="blue"   transform="" />
<line x1="155.1776695296637" y1="125" x2="155.1776695296637" y2="112.5" stroke="blue"   transform="" />
<line x1="144.8223304703363" y1="112.5" x2="140.53300858899107" y2="112.5" stroke="blue"   transform="" />
<line x1="140.53300858899107" y1="112.5" x2="150.0" y2="103.03300858899107" stroke="blue"   transform="" />
<line x1="159.46699141100893" y1="112.5" x2="155.1776695296637" y2="112.5" stroke="blue"   transform="" />
<line x1="150.0" y1="103.03300858899107" x2="159.46699141100893" y2="112.5" stroke="blue"   transform="" />
<line x1="103.03300858899107" y1="100.0" x2="112.5" y2="90.53300858899107" stroke="blue"   transform="" />
<line x1="103.03300858899107" y1="100.0" x2="112.5" y2="109.46699141100893" stroke="blue"   transform="" />
<line x1="112.5" y1="94.82233047033631" x2="112.5" y2="90.53300858899107" stroke="blue"   transform="" />
<line x1="112.5" y1="105.17766952966369" x2="112.5" y2="109.46699141100893" stroke="blue"   transform="" />
<line x1="112.5" y1="105.17766952966369" x2="125" y2="105.17766952966369" stroke="blue"   transform="" />
<line x1="112.5" y1="94.82233047033631" x2="125" y2="94.82233047033631" stroke="blue"   transform="" />
<line x1="103.03300858899107" y1="150.0" x2="112.5" y2="140.53300858899107" stroke="blue"   transform="" />
<line x1="103.03300858899107" y1="150.0" x2="112.5" y2="159.46699141100893" stroke="blue"   transform="" />
<line x1="112.5" y1="144.8223304703363" x2="112.5" y2="140.53300858899107" stroke="blue"   transform="" />
<line x1="112.5" y1="155.1776695296637" x2="112.5" y2="159.46699141100893" stroke="blue"   transform="" />
<line x1="112.5" y1="155.1776695296637" x2="125" y2="155.1776695296637" stroke="blue"   transform="" />
<line x1="112.5" y1="144.8223304703363" x2="125" y2="144.8223304703363" stroke="blue"   transform="" />
</svg>
