<?xml version="1.0" encoding="UTF-8" standalone="no"?>
<svg
   xmlns:dc="http://purl.org/dc/elements/1.1/"
   xmlns:cc="http://creativecommons.org/ns#"
   xmlns:rdf="http://www.w3.org/1999/02/22-rdf-syntax-ns#"
   xmlns:svg="http://www.w3.org/2000/svg"
   xmlns="http://www.w3.org/2000/svg"
   xmlns:sodipodi="http://sodipodi.sourceforge.net/DTD/sodipodi-0.dtd"
   xmlns:inkscape="http://www.inkscape.org/namespaces/inkscape"
   inkscape:version="1.0 (4035a4fb49, 2020-05-01)"
   sodipodi:docname="traffic15ARemanier.svg"
   id="svg6069"
   version="1.1"
   viewBox="0 0 1000 1000">
  <metadata
     id="metadata6075">
    <rdf:RDF>
      <cc:Work
         rdf:about="">
        <dc:format>image/svg+xml</dc:format>
        <dc:type
           rdf:resource="http://purl.org/dc/dcmitype/StillImage" />
        <dc:title></dc:title>
      </cc:Work>
    </rdf:RDF>
  </metadata>
  <defs
     id="defs6073" />
  <sodipodi:namedview
     inkscape:current-layer="svg6069"
     inkscape:window-maximized="1"
     inkscape:window-y="-8"
     inkscape:window-x="1912"
     inkscape:cy="68.839546"
     inkscape:cx="12.435264"
     inkscape:zoom="1.6550575"
     showgrid="false"
     id="namedview6071"
     inkscape:window-height="1017"
     inkscape:window-width="1920"
     inkscape:pageshadow="2"
     inkscape:pageopacity="0"
     guidetolerance="10"
     gridtolerance="10"
     objecttolerance="10"
     borderopacity="1"
     bordercolor="#666666"
     pagecolor="#ffffff" />
  <!-- Les bords intérieurs et exterieurs / -->
  <rect
     id="rect5857"
     transform=""
     stroke="lime"
     fill="none"
     ry="20"
     rx="20"
     height="200"
     width="200"
     y="0"
     x="0" />
  <line
     id="line5859"
     transform=""
     stroke="lime"
     y2="25"
     x2="150.0"
     y1="25"
     x1="25" />
  <path
     id="path5861"
     stroke="lime"
     fill="none"
     d=" M 150.0 25   a 25.0 25.0 0 0 1 25.0 25.0" />
  <line
     id="line5863"
     transform=""
     stroke="lime"
     y2="175"
     x2="175"
     y1="50.0"
     x1="175" />
  <line
     id="line5865"
     transform=""
     stroke="lime"
     y2="175"
     x2="50.0"
     y1="175"
     x1="175" />
  <path
     id="path5867"
     stroke="lime"
     fill="none"
     d=" M 25 150.0   a 25.0 25.0 0 0 0 25.0 25.0" />
  <line
     id="line5869"
     transform=""
     stroke="lime"
     y2="25"
     x2="25"
     y1="150.0"
     x1="25" />
  <!-- Pièce en haut à gauche / -->
  <!-- Pièce en haut à gauche ligne du bas/ -->
  <!-- Pièce en haut à gauche la hampe de flèche tordue/ -->
  <line
     id="line5871"
     transform=""
     stroke="blue"
     y2="62.5"
     x2="44.82233047033631"
     y1="75"
     x1="44.82233047033631" />
  <line
     id="line5873"
     transform=""
     stroke="blue"
     y2="62.5"
     x2="55.17766952966369"
     y1="75"
     x1="55.17766952966369" />
  <!-- Pièce en haut à gauche la hampe de flèche tordue/ -->
  <line
     id="line5875"
     transform=""
     stroke="blue"
     y2="85.35533905932738"
     x2="75"
     y1="85.35533905932738"
     x1="62.5" />
  <line
     id="line5877"
     transform=""
     stroke="blue"
     y2="95.71067811865476"
     x2="75"
     y1="95.71067811865476"
     x1="62.5" />
  <!-- Pièce en haut à gauche le grand coin arrondi à gauche/ -->
  <path
     id="path5879"
     fill="none"
     stroke="blue"
     d=" M  25 50.0 a 25.0 25.0 0 0 1 25.0 -25.0" />
  <!-- Pièce en haut au milieu/ -->
  <line
     id="line5881"
     transform=""
     stroke="blue"
     y2="37.5"
     x2="94.82233047033631"
     y1="25"
     x1="94.82233047033631" />
  <line
     id="line5883"
     transform=""
     stroke="blue"
     y2="37.5"
     x2="105.17766952966369"
     y1="25"
     x1="105.17766952966369" />
  <path
     id="path5885"
     fill="none"
     stroke="blue"
     d=" M  25 100.0 a 25.0 25.0 0 0 1 25.0 -25.0" />
  <line
     id="line5887"
     transform=""
     stroke="blue"
     y2="35.35533905932738"
     x2="75"
     y1="25"
     x1="75" />
  <line
     id="line5889"
     transform=""
     stroke="blue"
     y2="85.35533905932738"
     x2="75"
     y1="45.710678118654755"
     x1="75" />
  <line
     id="line5891"
     transform=""
     stroke="blue"
     y2="154.28932188134524"
     x2="75"
     y1="95.71067811865476"
     x1="75" />
  <line
     id="line5893"
     transform=""
     stroke="blue"
     y2="175"
     x2="75"
     y1="164.64466094067262"
     x1="75" />
  <line
     id="line5895"
     transform=""
     stroke="blue"
     y2="144.8223304703363"
     x2="125"
     y1="25"
     x1="125" />
  <line
     id="line5897"
     transform=""
     stroke="blue"
     y2="155.1776695296637"
     x2="125"
     y1="175"
     x1="125" />
  <line
     id="line5899"
     transform=""
     stroke="blue"
     y2="75"
     x2="175"
     y1="75"
     x1="25" />
  <line
     id="line5901"
     transform=""
     stroke="blue"
     y2="125"
     x2="144.8223304703363"
     y1="125"
     x1="25" />
  <line
     id="line5903"
     transform=""
     stroke="blue"
     y2="125"
     x2="155.1776695296637"
     y1="125"
     x1="175" />
  <path
     id="path5905"
     fill="none"
     stroke="blue"
     d=" M  25 122 a 3 3 0 0 0 3 3" />
  <path
     id="path5907"
     fill="none"
     stroke="blue"
     d=" M  75 122 a 3 3 0 0 0 3 3" />
  <path
     id="path5909"
     fill="none"
     stroke="blue"
     d=" M  125 122 a 3 3 0 0 0 3 3" />
  <path
     id="path5911"
     fill="none"
     stroke="blue"
     d=" M  25 72 a 3 3 0 0 0 3 3" />
  <path
     id="path5913"
     fill="none"
     stroke="blue"
     d=" M  75 72 a 3 3 0 0 0 3 3" />
  <path
     id="path5915"
     fill="none"
     stroke="blue"
     d=" M  125 72 a 3 3 0 0 0 3 3" />
  <path
     id="path5917"
     fill="none"
     stroke="blue"
     d=" M  75 172 a 3 3 0 0 0 3 3" />
  <path
     id="path5919"
     fill="none"
     stroke="blue"
     d=" M  125 172 a 3 3 0 0 0 3 3" />
  <path
     id="path5921"
     fill="none"
     stroke="blue"
     d=" M  72 75 a 3 3 0 0 0 3 -3" />
  <path
     id="path5923"
     fill="none"
     stroke="blue"
     d=" M  72 125 a 3 3 0 0 0 3 -3" />
  <path
     id="path5925"
     fill="none"
     stroke="blue"
     d=" M  72 175 a 3 3 0 0 0 3 -3" />
  <path
     id="path5927"
     fill="none"
     stroke="blue"
     d=" M  122 75 a 3 3 0 0 0 3 -3" />
  <path
     id="path5929"
     fill="none"
     stroke="blue"
     d=" M  122 125 a 3 3 0 0 0 3 -3" />
  <path
     id="path5931"
     fill="none"
     stroke="blue"
     d=" M  122 175 a 3 3 0 0 0 3 -3" />
  <path
     id="path5933"
     fill="none"
     stroke="blue"
     d=" M  172 75 a 3 3 0 0 0 3 -3" />
  <path
     id="path5935"
     fill="none"
     stroke="blue"
     d=" M  172 125 a 3 3 0 0 0 3 -3" />
  <path
     id="path5937"
     fill="none"
     stroke="blue"
     d=" M  172 175 a 3 3 0 0 0 3 -3" />
  <path
     id="path5939"
     fill="none"
     stroke="blue"
     d=" M  72 25 a 3 3 0 0 1 3 3" />
  <path
     id="path5941"
     fill="none"
     stroke="blue"
     d=" M  72 75 a 3 3 0 0 1 3 3" />
  <path
     id="path5943"
     fill="none"
     stroke="blue"
     d=" M  72 125 a 3 3 0 0 1 3 3" />
  <path
     id="path5945"
     fill="none"
     stroke="blue"
     d=" M  122 25 a 3 3 0 0 1 3 3" />
  <path
     id="path5947"
     fill="none"
     stroke="blue"
     d=" M  122 75 a 3 3 0 0 1 3 3" />
  <path
     id="path5949"
     fill="none"
     stroke="blue"
     d=" M  122 125 a 3 3 0 0 1 3 3" />
  <path
     id="path5951"
     fill="none"
     stroke="blue"
     d=" M  172 75 a 3 3 0 0 1 3 3" />
  <path
     id="path5953"
     fill="none"
     stroke="blue"
     d=" M  172 125 a 3 3 0 0 1 3 3" />
  <path
     id="path5955"
     fill="none"
     stroke="blue"
     d=" M  122 75 a 3 3 0 0 1 3 3" />
  <path
     id="path5957"
     fill="none"
     stroke="blue"
     d=" M  122 125 a 3 3 0 0 1 3 3" />
  <path
     id="path5959"
     fill="none"
     stroke="blue"
     d=" M  125 128 a 3 3 0 0 1 3 -3" />
  <path
     id="path5961"
     fill="none"
     stroke="blue"
     d=" M  125 78 a 3 3 0 0 1 3 -3" />
  <path
     id="path5963"
     fill="none"
     stroke="blue"
     d=" M  125 28 a 3 3 0 0 1 3 -3" />
  <path
     id="path5965"
     fill="none"
     stroke="blue"
     d=" M  75 128 a 3 3 0 0 1 3 -3" />
  <path
     id="path5967"
     fill="none"
     stroke="blue"
     d=" M  75 78 a 3 3 0 0 1 3 -3" />
  <path
     id="path5969"
     fill="none"
     stroke="blue"
     d=" M  75 28 a 3 3 0 0 1 3 -3" />
  <path
     id="path5971"
     fill="none"
     stroke="blue"
     d=" M  25 128 a 3 3 0 0 1 3 -3" />
  <path
     id="path5973"
     fill="none"
     stroke="blue"
     d=" M  25 78 a 3 3 0 0 1 3 -3" />
  <line
     id="line5975"
     transform=""
     stroke="blue"
     y2="35.35533905932738"
     x2="75"
     y1="35.35533905932738"
     x1="53.033008588991066" />
  <line
     id="line5977"
     transform=""
     stroke="blue"
     y2="45.710678118654755"
     x2="75"
     y1="45.710678118654755"
     x1="53.033008588991066" />
  <line
     id="line5979"
     transform=""
     stroke="blue"
     y2="45.710678118654755"
     x2="53.033008588991066"
     y1="35.35533905932738"
     x1="53.033008588991066" />
  <line
     id="line5981"
     transform=""
     stroke="blue"
     y2="35.35533905932738"
     x2="146.96699141100893"
     y1="35.35533905932738"
     x1="125.0" />
  <line
     id="line5983"
     transform=""
     stroke="blue"
     y2="45.710678118654755"
     x2="146.96699141100893"
     y1="45.710678118654755"
     x1="125.0" />
  <line
     id="line5985"
     transform=""
     stroke="blue"
     y2="45.710678118654755"
     x2="146.96699141100893"
     y1="35.35533905932738"
     x1="146.96699141100893" />
  <line
     id="line5987"
     transform=""
     stroke="blue"
     y2="75"
     x2="154.28932188134524"
     y1="53.033008588991066"
     x1="154.28932188134524" />
  <line
     id="line5989"
     transform=""
     stroke="blue"
     y2="75"
     x2="164.64466094067262"
     y1="53.033008588991066"
     x1="164.64466094067262" />
  <line
     id="line5991"
     transform=""
     stroke="blue"
     y2="53.033008588991066"
     x2="154.28932188134524"
     y1="53.033008588991066"
     x1="164.64466094067262" />
  <line
     id="line5993"
     transform=""
     stroke="blue"
     y2="175"
     x2="154.28932188134524"
     y1="153.03300858899107"
     x1="154.28932188134524" />
  <line
     id="line5995"
     transform=""
     stroke="blue"
     y2="175"
     x2="164.64466094067262"
     y1="153.03300858899107"
     x1="164.64466094067262" />
  <line
     id="line5997"
     transform=""
     stroke="blue"
     y2="153.03300858899107"
     x2="154.28932188134524"
     y1="153.03300858899107"
     x1="164.64466094067262" />
  <line
     id="line5999"
     transform=""
     stroke="blue"
     y2="154.28932188134524"
     x2="96.96699141100893"
     y1="154.28932188134524"
     x1="75.0" />
  <line
     id="line6001"
     transform=""
     stroke="blue"
     y2="164.64466094067262"
     x2="96.96699141100893"
     y1="164.64466094067262"
     x1="75.0" />
  <line
     id="line6003"
     transform=""
     stroke="blue"
     y2="164.64466094067262"
     x2="96.96699141100893"
     y1="154.28932188134524"
     x1="96.96699141100893" />
  <line
     id="line6005"
     transform=""
     stroke="blue"
     y2="40.533008588991066"
     x2="84.46699141100893"
     y1="31.066017177982133"
     x1="75" />
  <line
     id="line6007"
     transform=""
     stroke="blue"
     y2="40.533008588991066"
     x2="84.46699141100893"
     y1="50.0"
     x1="75" />
  <line
     id="line6009"
     transform=""
     stroke="blue"
     y2="90.53300858899107"
     x2="84.46699141100893"
     y1="81.06601717798213"
     x1="75" />
  <line
     id="line6011"
     transform=""
     stroke="blue"
     y2="90.53300858899107"
     x2="84.46699141100893"
     y1="100.0"
     x1="75" />
  <line
     id="line6013"
     transform=""
     stroke="blue"
     y2="159.46699141100893"
     x2="65.53300858899107"
     y1="150.0"
     x1="75" />
  <line
     id="line6015"
     transform=""
     stroke="blue"
     y2="159.46699141100893"
     x2="65.53300858899107"
     y1="168.93398282201787"
     x1="75" />
  <line
     id="line6017"
     transform=""
     stroke="blue"
     y2="134.46699141100893"
     x2="150.0"
     y1="125"
     x1="140.53300858899107" />
  <line
     id="line6019"
     transform=""
     stroke="blue"
     y2="134.46699141100893"
     x2="150.0"
     y1="125"
     x1="159.46699141100893" />
  <line
     id="line6021"
     transform=""
     stroke="blue"
     y2="134.46699141100893"
     x2="59.466991411008934"
     y1="125"
     x1="50.0" />
  <line
     id="line6023"
     transform=""
     stroke="blue"
     y2="134.46699141100893"
     x2="59.466991411008934"
     y1="125"
     x1="68.93398282201787" />
  <line
     id="line6025"
     transform=""
     stroke="blue"
     y2="115.53300858899107"
     x2="59.466991411008934"
     y1="125"
     x1="50.0" />
  <line
     id="line6027"
     transform=""
     stroke="blue"
     y2="115.53300858899107"
     x2="59.466991411008934"
     y1="125"
     x1="68.93398282201787" />
  <line
     id="line6029"
     transform=""
     stroke="blue"
     y2="150.0"
     x2="134.46699141100893"
     y1="140.53300858899107"
     x1="125" />
  <line
     id="line6031"
     transform=""
     stroke="blue"
     y2="159.46699141100893"
     x2="125"
     y1="150.0"
     x1="134.46699141100893" />
  <line
     id="line6033"
     transform=""
     stroke="blue"
     y2="112.5"
     x2="144.8223304703363"
     y1="125"
     x1="144.8223304703363" />
  <line
     id="line6035"
     transform=""
     stroke="blue"
     y2="112.5"
     x2="155.1776695296637"
     y1="125"
     x1="155.1776695296637" />
  <line
     id="line6037"
     transform=""
     stroke="blue"
     y2="112.5"
     x2="140.53300858899107"
     y1="112.5"
     x1="144.8223304703363" />
  <line
     id="line6039"
     transform=""
     stroke="blue"
     y2="103.03300858899107"
     x2="150.0"
     y1="112.5"
     x1="140.53300858899107" />
  <line
     id="line6041"
     transform=""
     stroke="blue"
     y2="112.5"
     x2="155.1776695296637"
     y1="112.5"
     x1="159.46699141100893" />
  <line
     id="line6043"
     transform=""
     stroke="blue"
     y2="112.5"
     x2="159.46699141100893"
     y1="103.03300858899107"
     x1="150.0" />
  <line
     id="line6045"
     transform=""
     stroke="blue"
     y2="90.53300858899107"
     x2="112.5"
     y1="100.0"
     x1="103.03300858899107" />
  <line
     id="line6047"
     transform=""
     stroke="blue"
     y2="109.46699141100893"
     x2="112.5"
     y1="100.0"
     x1="103.03300858899107" />
  <line
     id="line6049"
     transform=""
     stroke="blue"
     y2="90.53300858899107"
     x2="112.5"
     y1="94.82233047033631"
     x1="112.5" />
  <line
     id="line6051"
     transform=""
     stroke="blue"
     y2="109.46699141100893"
     x2="112.5"
     y1="105.17766952966369"
     x1="112.5" />
  <line
     id="line6053"
     transform=""
     stroke="blue"
     y2="105.17766952966369"
     x2="125"
     y1="105.17766952966369"
     x1="112.5" />
  <line
     id="line6055"
     transform=""
     stroke="blue"
     y2="94.82233047033631"
     x2="125"
     y1="94.82233047033631"
     x1="112.5" />
  <line
     id="line6057"
     transform=""
     stroke="blue"
     y2="140.53300858899107"
     x2="112.5"
     y1="150.0"
     x1="103.03300858899107" />
  <line
     id="line6059"
     transform=""
     stroke="blue"
     y2="159.46699141100893"
     x2="112.5"
     y1="150.0"
     x1="103.03300858899107" />
  <line
     id="line6061"
     transform=""
     stroke="blue"
     y2="140.53300858899107"
     x2="112.5"
     y1="144.8223304703363"
     x1="112.5" />
  <line
     id="line6063"
     transform=""
     stroke="blue"
     y2="159.46699141100893"
     x2="112.5"
     y1="155.1776695296637"
     x1="112.5" />
  <line
     id="line6065"
     transform=""
     stroke="blue"
     y2="155.1776695296637"
     x2="125"
     y1="155.1776695296637"
     x1="112.5" />
  <line
     id="line6067"
     transform=""
     stroke="blue"
     y2="144.8223304703363"
     x2="125"
     y1="144.8223304703363"
     x1="112.5" />
</svg>
