<?xml version="1.0" encoding="UTF-8" standalone="no"?>
<svg
   xmlns:dc="http://purl.org/dc/elements/1.1/"
   xmlns:cc="http://creativecommons.org/ns#"
   xmlns:rdf="http://www.w3.org/1999/02/22-rdf-syntax-ns#"
   xmlns:svg="http://www.w3.org/2000/svg"
   xmlns="http://www.w3.org/2000/svg"
   xmlns:sodipodi="http://sodipodi.sourceforge.net/DTD/sodipodi-0.dtd"
   xmlns:inkscape="http://www.inkscape.org/namespaces/inkscape"
   height="297mm"
   width="210mm"
   inkscape:version="1.0 (4035a4fb49, 2020-05-01)"
   sodipodi:docname="traffic15completV1.svg"
   id="svg11361"
   version="1.1"
   viewBox="0 0 793.70079 1122.5197">
  <metadata
     id="metadata11367">
    <rdf:RDF>
      <cc:Work
         rdf:about="">
        <dc:format>image/svg+xml</dc:format>
        <dc:type
           rdf:resource="http://purl.org/dc/dcmitype/StillImage" />
        <dc:title></dc:title>
      </cc:Work>
    </rdf:RDF>
  </metadata>
  <defs
     id="defs11365" />
  <sodipodi:namedview
     units="mm"
     inkscape:document-rotation="0"
     inkscape:current-layer="svg11361"
     inkscape:window-maximized="1"
     inkscape:window-y="-8"
     inkscape:window-x="1912"
     inkscape:cy="200.2573"
     inkscape:cx="-281.30233"
     inkscape:zoom="0.45952184"
     showgrid="false"
     id="namedview11363"
     inkscape:window-height="1017"
     inkscape:window-width="1920"
     inkscape:pageshadow="2"
     inkscape:pageopacity="0"
     guidetolerance="10"
     gridtolerance="10"
     objecttolerance="10"
     borderopacity="1"
     bordercolor="#666666"
     pagecolor="#ffffff" />
  <!-- Les bords intérieurs et exterieurs / -->
  <!-- Pièce en haut à gauche / -->
  <!-- Pièce en haut à gauche ligne du bas/ -->
  <!-- Pièce en haut à gauche la hampe de flèche tordue/ -->
  <!-- Pièce en haut à gauche le grand coin arrondi à gauche/ -->
  <!-- Pièce en haut au milieu/ -->
  <g
     transform="matrix(3.3846515,0,0,3.3846515,68.375544,37.909092)"
     id="g1043">
    <rect
       x="0"
       y="0"
       width="200"
       height="200"
       rx="20"
       ry="20"
       fill="none"
       stroke="#00ff00"
       id="rect11149" />
    <line
       x1="25"
       y1="25"
       x2="150"
       y2="25"
       stroke="#00ff00"
       id="line11151" />
    <path
       d="m 150,25 a 25,25 0 0 1 25,25"
       fill="none"
       stroke="#00ff00"
       id="path11153" />
    <line
       x1="175"
       y1="50"
       x2="175"
       y2="175"
       stroke="#00ff00"
       id="line11155" />
    <line
       x1="175"
       y1="175"
       x2="50"
       y2="175"
       stroke="#00ff00"
       id="line11157" />
    <path
       d="m 25,150 a 25,25 0 0 0 25,25"
       fill="none"
       stroke="#00ff00"
       id="path11159" />
    <line
       x1="25"
       y1="150"
       x2="25"
       y2="25"
       stroke="#00ff00"
       id="line11161" />
    <path
       d="M 25,50 A 25,25 0 0 1 50,25"
       stroke="#0000ff"
       fill="none"
       id="path11171" />
    <path
       style="fill:none;stroke:#0000ff"
       d="m 95,24.983448 c 0,0 -0.301635,13.644639 -0.248444,17.4756 2.436666,3.003366 3.441236,3.754296 4.559885,4.929058 1.935439,2.032528 7.084219,6.753178 7.084219,6.753178 l 5.56144,-8.275953 c 0.41184,-0.117669 -1.19979,-0.750558 -5.62765,-4.833157 -0.54977,-0.506899 -1.62854,-2.007406 -1.47679,-2.642417 C 104.88854,35.751965 105,24.983448 105,24.983448"
       id="line11173"
       inkscape:connector-curvature="0"
       sodipodi:nodetypes="ccsccscc" />
    <path
       d="M 25,100 A 25,25 0 0 1 50,75"
       stroke="#0000ff"
       fill="none"
       id="path11177" />
    <line
       x1="75"
       y1="25"
       x2="75"
       y2="35"
       stroke="#0000ff"
       id="line11179" />
    <line
       x1="75"
       y1="45"
       x2="75"
       y2="85"
       stroke="#0000ff"
       id="line11181" />
    <line
       x1="75"
       y1="95"
       x2="75"
       y2="155"
       stroke="#0000ff"
       id="line11183" />
    <line
       x1="75"
       y1="165"
       x2="75"
       y2="175"
       stroke="#0000ff"
       id="line11185" />
    <line
       x1="125"
       y1="25"
       x2="125"
       y2="145"
       stroke="#0000ff"
       id="line11187" />
    <line
       x1="125"
       y1="175"
       x2="125"
       y2="155"
       stroke="#0000ff"
       id="line11189" />
    <line
       x1="25"
       y1="75"
       x2="175"
       y2="75"
       stroke="#0000ff"
       id="line11191" />
    <line
       x1="25"
       y1="125"
       x2="145"
       y2="125"
       stroke="#0000ff"
       id="line11193" />
    <line
       x1="175"
       y1="125"
       x2="155"
       y2="125"
       stroke="#0000ff"
       id="line11195" />
    <path
       d="m 25,122 a 3,3 0 0 0 3,3"
       stroke="#0000ff"
       fill="none"
       id="path11197" />
    <path
       d="m 75,122 a 3,3 0 0 0 3,3"
       stroke="#0000ff"
       fill="none"
       id="path11199" />
    <path
       d="m 125,122 a 3,3 0 0 0 3,3"
       stroke="#0000ff"
       fill="none"
       id="path11201" />
    <path
       d="m 25,72 a 3,3 0 0 0 3,3"
       stroke="#0000ff"
       fill="none"
       id="path11203" />
    <path
       d="m 75,72 a 3,3 0 0 0 3,3"
       stroke="#0000ff"
       fill="none"
       id="path11205" />
    <path
       d="m 125,72 a 3,3 0 0 0 3,3"
       stroke="#0000ff"
       fill="none"
       id="path11207" />
    <path
       d="m 75,172 a 3,3 0 0 0 3,3"
       stroke="#0000ff"
       fill="none"
       id="path11209" />
    <path
       d="m 125,172 a 3,3 0 0 0 3,3"
       stroke="#0000ff"
       fill="none"
       id="path11211" />
    <path
       d="m 72,75 a 3,3 0 0 0 3,-3"
       stroke="#0000ff"
       fill="none"
       id="path11213" />
    <path
       d="m 72,125 a 3,3 0 0 0 3,-3"
       stroke="#0000ff"
       fill="none"
       id="path11215" />
    <path
       d="m 72,175 a 3,3 0 0 0 3,-3"
       stroke="#0000ff"
       fill="none"
       id="path11217" />
    <path
       d="m 122,75 a 3,3 0 0 0 3,-3"
       stroke="#0000ff"
       fill="none"
       id="path11219" />
    <path
       d="m 122,125 a 3,3 0 0 0 3,-3"
       stroke="#0000ff"
       fill="none"
       id="path11221" />
    <path
       d="m 122,175 a 3,3 0 0 0 3,-3"
       stroke="#0000ff"
       fill="none"
       id="path11223" />
    <path
       d="m 172,75 a 3,3 0 0 0 3,-3"
       stroke="#0000ff"
       fill="none"
       id="path11225" />
    <path
       d="m 172,125 a 3,3 0 0 0 3,-3"
       stroke="#0000ff"
       fill="none"
       id="path11227" />
    <path
       d="m 172,175 a 3,3 0 0 0 3,-3"
       stroke="#0000ff"
       fill="none"
       id="path11229" />
    <path
       d="m 72,25 a 3,3 0 0 1 3,3"
       stroke="#0000ff"
       fill="none"
       id="path11231" />
    <path
       d="m 72,75 a 3,3 0 0 1 3,3"
       stroke="#0000ff"
       fill="none"
       id="path11233" />
    <path
       d="m 72,125 a 3,3 0 0 1 3,3"
       stroke="#0000ff"
       fill="none"
       id="path11235" />
    <path
       d="m 122,25 a 3,3 0 0 1 3,3"
       stroke="#0000ff"
       fill="none"
       id="path11237" />
    <path
       d="m 122,75 a 3,3 0 0 1 3,3"
       stroke="#0000ff"
       fill="none"
       id="path11239" />
    <path
       d="m 122,125 a 3,3 0 0 1 3,3"
       stroke="#0000ff"
       fill="none"
       id="path11241" />
    <path
       d="m 172,75 a 3,3 0 0 1 3,3"
       stroke="#0000ff"
       fill="none"
       id="path11243" />
    <path
       d="m 172,125 a 3,3 0 0 1 3,3"
       stroke="#0000ff"
       fill="none"
       id="path11245" />
    <path
       d="m 122,75 a 3,3 0 0 1 3,3"
       stroke="#0000ff"
       fill="none"
       id="path11247" />
    <path
       d="m 122,125 a 3,3 0 0 1 3,3"
       stroke="#0000ff"
       fill="none"
       id="path11249" />
    <path
       d="m 125,128 a 3,3 0 0 1 3,-3"
       stroke="#0000ff"
       fill="none"
       id="path11251" />
    <path
       d="m 125,78 a 3,3 0 0 1 3,-3"
       stroke="#0000ff"
       fill="none"
       id="path11253" />
    <path
       d="m 125,28 a 3,3 0 0 1 3,-3"
       stroke="#0000ff"
       fill="none"
       id="path11255" />
    <path
       d="m 75,128 a 3,3 0 0 1 3,-3"
       stroke="#0000ff"
       fill="none"
       id="path11257" />
    <path
       d="m 75,78 a 3,3 0 0 1 3,-3"
       stroke="#0000ff"
       fill="none"
       id="path11259" />
    <path
       d="m 75,28 a 3,3 0 0 1 3,-3"
       stroke="#0000ff"
       fill="none"
       id="path11261" />
    <path
       d="m 25,128 a 3,3 0 0 1 3,-3"
       stroke="#0000ff"
       fill="none"
       id="path11263" />
    <path
       d="m 25,78 a 3,3 0 0 1 3,-3"
       stroke="#0000ff"
       fill="none"
       id="path11265" />
    <line
       x1="54.166668"
       y1="35"
       x2="75"
       y2="35"
       stroke="#0000ff"
       id="line11267" />
    <line
       x1="54.166668"
       y1="45"
       x2="75"
       y2="45"
       stroke="#0000ff"
       id="line11269" />
    <line
       x1="54.166668"
       y1="35"
       x2="54.166668"
       y2="45"
       stroke="#0000ff"
       id="line11271" />
    <line
       x1="125"
       y1="35"
       x2="145.83333"
       y2="35"
       stroke="#0000ff"
       id="line11273" />
    <line
       x1="125"
       y1="45"
       x2="145.83333"
       y2="45"
       stroke="#0000ff"
       id="line11275" />
    <line
       x1="145.83333"
       y1="35"
       x2="145.83333"
       y2="45"
       stroke="#0000ff"
       id="line11277" />
    <line
       x1="155"
       y1="54.166668"
       x2="155"
       y2="75"
       stroke="#0000ff"
       id="line11279" />
    <line
       x1="165"
       y1="54.166668"
       x2="165"
       y2="75"
       stroke="#0000ff"
       id="line11281" />
    <line
       x1="165"
       y1="54.166668"
       x2="155"
       y2="54.166668"
       stroke="#0000ff"
       id="line11283" />
    <line
       x1="155"
       y1="154.16667"
       x2="155"
       y2="175"
       stroke="#0000ff"
       id="line11285" />
    <line
       x1="165"
       y1="154.16667"
       x2="165"
       y2="175"
       stroke="#0000ff"
       id="line11287" />
    <line
       x1="165"
       y1="154.16667"
       x2="155"
       y2="154.16667"
       stroke="#0000ff"
       id="line11289" />
    <line
       x1="75"
       y1="155"
       x2="95.833336"
       y2="155"
       stroke="#0000ff"
       id="line11291" />
    <line
       x1="75"
       y1="165"
       x2="95.833336"
       y2="165"
       stroke="#0000ff"
       id="line11293" />
    <line
       x1="95.833336"
       y1="155"
       x2="95.833336"
       y2="165"
       stroke="#0000ff"
       id="line11295" />
    <line
       x1="75"
       y1="30"
       x2="85"
       y2="40"
       stroke="#0000ff"
       id="line11297" />
    <line
       x1="75"
       y1="50"
       x2="85"
       y2="40"
       stroke="#0000ff"
       id="line11299" />
    <line
       x1="75"
       y1="80"
       x2="85"
       y2="90"
       stroke="#0000ff"
       id="line11301" />
    <line
       x1="75"
       y1="100"
       x2="85"
       y2="90"
       stroke="#0000ff"
       id="line11303" />
    <line
       x1="75"
       y1="150"
       x2="65"
       y2="160"
       stroke="#0000ff"
       id="line11305" />
    <line
       x1="75"
       y1="170"
       x2="65"
       y2="160"
       stroke="#0000ff"
       id="line11307" />
    <line
       x1="140"
       y1="125"
       x2="150"
       y2="135"
       stroke="#0000ff"
       id="line11309" />
    <line
       x1="160"
       y1="125"
       x2="150"
       y2="135"
       stroke="#0000ff"
       id="line11311" />
    <line
       x1="50"
       y1="125"
       x2="60"
       y2="135"
       stroke="#0000ff"
       id="line11313" />
    <line
       x1="70"
       y1="125"
       x2="60"
       y2="135"
       stroke="#0000ff"
       id="line11315" />
    <line
       x1="50"
       y1="125"
       x2="60"
       y2="115"
       stroke="#0000ff"
       id="line11317" />
    <line
       x1="70"
       y1="125"
       x2="60"
       y2="115"
       stroke="#0000ff"
       id="line11319" />
    <line
       x1="125"
       y1="140"
       x2="135"
       y2="150"
       stroke="#0000ff"
       id="line11321" />
    <line
       x1="135"
       y1="150"
       x2="125"
       y2="160"
       stroke="#0000ff"
       id="line11323" />
    <line
       x1="145"
       y1="125"
       x2="145"
       y2="112.5"
       stroke="#0000ff"
       id="line11325" />
    <line
       x1="155"
       y1="125"
       x2="155"
       y2="112.5"
       stroke="#0000ff"
       id="line11327" />
    <line
       x1="145"
       y1="112.5"
       x2="140"
       y2="112.5"
       stroke="#0000ff"
       id="line11329" />
    <line
       x1="140"
       y1="112.5"
       x2="150"
       y2="102.5"
       stroke="#0000ff"
       id="line11331" />
    <line
       x1="160"
       y1="112.5"
       x2="155"
       y2="112.5"
       stroke="#0000ff"
       id="line11333" />
    <line
       x1="150"
       y1="102.5"
       x2="160"
       y2="112.5"
       stroke="#0000ff"
       id="line11335" />
    <line
       x1="102.5"
       y1="100"
       x2="112.5"
       y2="90"
       stroke="#0000ff"
       id="line11337" />
    <line
       x1="102.5"
       y1="100"
       x2="112.5"
       y2="110"
       stroke="#0000ff"
       id="line11339" />
    <line
       x1="112.5"
       y1="95"
       x2="112.5"
       y2="90"
       stroke="#0000ff"
       id="line11341" />
    <line
       x1="112.5"
       y1="105"
       x2="112.5"
       y2="110"
       stroke="#0000ff"
       id="line11343" />
    <line
       x1="112.5"
       y1="105"
       x2="125"
       y2="105"
       stroke="#0000ff"
       id="line11345" />
    <line
       x1="112.5"
       y1="95"
       x2="125"
       y2="95"
       stroke="#0000ff"
       id="line11347" />
    <line
       x1="102.5"
       y1="150"
       x2="112.5"
       y2="140"
       stroke="#0000ff"
       id="line11349" />
    <line
       x1="102.5"
       y1="150"
       x2="112.5"
       y2="160"
       stroke="#0000ff"
       id="line11351" />
    <line
       x1="112.5"
       y1="145"
       x2="112.5"
       y2="140"
       stroke="#0000ff"
       id="line11353" />
    <line
       x1="112.5"
       y1="155"
       x2="112.5"
       y2="160"
       stroke="#0000ff"
       id="line11355" />
    <line
       x1="112.5"
       y1="155"
       x2="125"
       y2="155"
       stroke="#0000ff"
       id="line11357" />
    <line
       x1="112.5"
       y1="145"
       x2="125"
       y2="145"
       stroke="#0000ff"
       id="line11359" />
    <path
       style="fill:none;stroke:#0000ff"
       d="m 75.514974,85 c 0,0 -13.64464,-0.30163 -17.4756,-0.24844 -3.00337,2.43666 -3.7543,3.44123 -4.92906,4.55988 -2.03253,1.93544 -6.75318,7.08422 -6.75318,7.08422 l 8.27596,5.56144 c 0.11767,0.41184 0.75056,-1.19979 4.83315,-5.62765 0.5069,-0.54977 2.00741,-1.62854 2.64242,-1.47679 C 64.746454,94.88856 75.514974,95 75.514974,95"
       id="line11173-6"
       inkscape:connector-curvature="0"
       sodipodi:nodetypes="ccsccscc" />
    <path
       style="fill:none;stroke:#0000ff"
       d="M 55,75 C 55,75 55.301635,61.35536 55.248444,57.524399 52.811778,54.521033 51.807208,53.770103 50.688559,52.595341 48.75312,50.562813 43.60434,45.842163 43.60434,45.842163 l -5.56144,8.275953 c -0.41184,0.117669 1.19979,0.750558 5.62765,4.833157 0.54977,0.506899 1.62854,2.007406 1.47679,2.642417 C 45.11146,64.231482 45,75 45,75"
       id="line11173-3"
       inkscape:connector-curvature="0"
       sodipodi:nodetypes="ccsccscc" />
    <text
       xml:space="preserve"
       style="font-style:normal;font-variant:normal;font-weight:normal;font-stretch:normal;font-size:8px;line-height:1.25;font-family:'Myanmar Text';-inkscape-font-specification:'Myanmar Text';font-variant-ligatures:normal;font-variant-caps:normal;font-variant-numeric:normal;font-feature-settings:normal;text-align:start;letter-spacing:0px;word-spacing:0px;writing-mode:lr-tb;text-anchor:start;fill:#000000;fill-opacity:1;stroke:none"
       x="15.128414"
       y="189.01295"
       id="text11400"><tspan
         sodipodi:role="line"
         id="tspan11398"
         x="15.128414"
         y="189.01295">Traffic 15</tspan></text>
    <text
       xml:space="preserve"
       style="font-style:normal;font-variant:normal;font-weight:normal;font-stretch:normal;font-size:8px;line-height:1.25;font-family:'Myanmar Text';-inkscape-font-specification:'Myanmar Text';font-variant-ligatures:normal;font-variant-caps:normal;font-variant-numeric:normal;font-feature-settings:normal;text-align:start;letter-spacing:0px;word-spacing:0px;writing-mode:lr-tb;text-anchor:start;fill:#000000;fill-opacity:1;stroke:none"
       x="122.64425"
       y="188.96999"
       id="text11404"><tspan
         sodipodi:role="line"
         id="tspan11402"
         x="122.64425"
         y="188.96999">Creator Yuu Azaka</tspan></text>
  </g>
</svg>
