<svg viewBox="0 0 1000 1000" xmlns="http://www.w3.org/2000/svg">
<circle cx="50.0" cy="12.5"  r="4.132231404958678"  fill="none" stroke="blue"/>
<circle cx="200.0" cy="12.5"  r="4.132231404958678"  fill="none" stroke="blue"/>
<circle cx="50.0" cy="187.5"  r="4.132231404958678"  fill="none" stroke="blue"/>
<circle cx="200.0" cy="187.5"  r="4.132231404958678"  fill="none" stroke="blue"/>
<rect x="0" y="0" width="250" height="200" rx ="20" ry="20" fill="none" stroke="lime" transform=""/>
<circle cx="50.0" cy="100.0"  r="25.0"  fill="none" stroke="blue"/>
<rect x="255" y="0" width="250" height="200" rx ="20" ry="20" fill="none" stroke="lime" transform=""/>
<circle cx="305.0" cy="12.5"  r="4.132231404958678"  fill="none" stroke="blue"/>
<circle cx="455.0" cy="12.5"  r="4.132231404958678"  fill="none" stroke="blue"/>
<circle cx="305.0" cy="187.5"  r="4.132231404958678"  fill="none" stroke="blue"/>
<circle cx="455.0" cy="187.5"  r="4.132231404958678"  fill="none" stroke="blue"/>
<rect x="280" y="25" width="200" height="150" rx ="0" ry="0" fill="none" stroke="blue" transform=""/>
<line x1="330" y1="25" x2="330" y2="175" stroke="blue"   transform="" />
<line x1="380" y1="25" x2="380" y2="175" stroke="blue"   transform="" />
<line x1="430" y1="75" x2="430" y2="175" stroke="blue"   transform="" />
<line x1="330" y1="75" x2="480" y2="75" stroke="blue"   transform="" />
<circle cx="560.0" cy="12.5"  r="4.132231404958678"  fill="none" stroke="blue"/>
<circle cx="710.0" cy="12.5"  r="4.132231404958678"  fill="none" stroke="blue"/>
<circle cx="560.0" cy="187.5"  r="4.132231404958678"  fill="none" stroke="blue"/>
<circle cx="710.0" cy="187.5"  r="4.132231404958678"  fill="none" stroke="blue"/>
<rect x="510" y="0" width="250" height="200" rx ="20" ry="20" fill="none" stroke="lime" transform=""/>
<circle cx="710.0" cy="100.0"  r="25.0"  fill="none" stroke="blue"/>
</svg>
